<svg id="TRS-Logo" xmlns="http://www.w3.org/2000/svg" width="149.181" height="50.774"><defs><style>.cls-1{fill:#323c91}.cls-2{fill:#fff}.cls-3{fill:#b1c005}</style></defs><path id="Path_393" data-name="Path 393" class="cls-1" d="M49.58 30.171c0-1.938-1.866-2.171-3.38-2.171h-2.568v4.418h2.333c1.671 0 3.615-.155 3.615-2.247z" transform="translate(-11.984 -7.69)"/><path id="Path_394" data-name="Path 394" class="cls-1" d="M40.551 32.325l2.255-2.132a3.973 3.973 0 003.3 1.705c1.361 0 2.955-.736 2.955-2.248 0-3.566-7.97-1.512-7.97-7.325 0-3.372 3.071-4.922 6.182-4.922a8.5 8.5 0 012.449.349 25.349 25.349 0 10-.228 16.048 7.52 7.52 0 01-3.421.736 7.063 7.063 0 01-5.522-2.211zm-2.838 1.783l-3.888-6.9h-2.177v6.9h-2.994V20.426h-4.976v13.682h-2.994V20.426h-5.171v-2.6h18.934c3.227 0 6.26 1.008 6.26 4.69a4.208 4.208 0 01-3.888 4.418l4.51 7.17z"/><path id="Path_395" data-name="Path 395" class="cls-1" d="M63.706 27.626c-1.361 0-2.76.581-2.76 2.093 0 2.442 4.393 2.015 6.687 4.031v-.775a25.283 25.283 0 00-.233-3.45c-.273-.736-1.089-1.899-3.694-1.899z" transform="translate(-16.739 -7.588)"/><path id="Path_396" data-name="Path 396" class="cls-2" d="M21.387 24.58v2.6h5.171v13.679h2.994V27.177h4.977v-2.6z" transform="translate(-5.874 -6.751)"/><path id="Path_397" data-name="Path 397" class="cls-2" d="M51.6 29.217c0-3.643-3.033-4.69-6.26-4.69h-5.68v2.636h-.16v13.681h3v-6.9h2.177l3.888 6.9h3.616l-4.471-7.209a4.208 4.208 0 003.89-4.418zm-9.1 2.248v-4.419h2.566c1.555 0 3.382.233 3.382 2.171 0 2.132-1.983 2.248-3.655 2.248z" transform="translate(-10.85 -6.736)"/><path id="Path_398" data-name="Path 398" class="cls-2" d="M39.66 24.58h-.16v2.636h.156z" transform="translate(-10.85 -6.751)"/><path id="Path_399" data-name="Path 399" class="cls-2" d="M59.615 28.736c0-1.512 1.361-2.093 2.76-2.093 2.6 0 3.421 1.163 3.694 1.938a25.116 25.116 0 00-.933-4.186 8.7 8.7 0 00-2.449-.349c-3.11 0-6.182 1.55-6.182 4.922 0 5.814 7.97 3.76 7.97 7.325 0 1.512-1.555 2.248-2.955 2.248a3.973 3.973 0 01-3.3-1.705l-2.26 2.132a7.063 7.063 0 005.521 2.209 7.521 7.521 0 003.421-.736 24.833 24.833 0 001.4-7.636c-2.293-2.054-6.687-1.666-6.687-4.069z" transform="translate(-15.37 -6.604)"/><path id="Path_400" data-name="Path 400" class="cls-3" d="M87.563 29.217c0-3.643-3.033-4.69-6.26-4.69h-5.832v16.317h2.994v-6.9h2.177l3.888 6.9h3.616l-4.471-7.209a4.208 4.208 0 003.888-4.418zm-9.1 2.248v-4.419h2.566c1.555 0 3.382.233 3.382 2.171 0 2.132-1.983 2.248-3.655 2.248z" transform="translate(-20.729 -6.736)"/><path id="Path_401" data-name="Path 401" class="cls-3" d="M100.092 31.42c-3.422 0-6.182 2.326-6.182 5.814s2.76 5.814 6.182 5.814a6.02 6.02 0 004.821-2.209l-2.06-1.512a3.773 3.773 0 01-3.072 1.512A2.946 2.946 0 0196.71 38.2h8.67v-.775c.038-3.835-2.138-6.005-5.288-6.005zm-3.344 4.69a2.792 2.792 0 012.952-2.636 2.556 2.556 0 012.877 2.636z" transform="translate(-25.793 -8.63)"/><path id="Path_402" data-name="Path 402" class="cls-3" d="M119.038 31.42a3.586 3.586 0 00-3.5 2.054h-.038v-1.783h-2.721v11.046h2.838V36.73a2.493 2.493 0 012.605-2.791c1.982 0 2.1 2.016 2.1 3.256v5.542h2.838v-6.976c-.001-2.248-1.09-4.341-4.122-4.341z" transform="translate(-30.975 -8.63)"/><path id="Path_403" data-name="Path 403" class="cls-3" d="M138.2 24.58h-13.254v2.6h5.132v13.679h2.994V27.177h5.128z" transform="translate(-34.317 -6.751)"/><path id="Path_404" data-name="Path 404" class="cls-3" d="M146.726 31.42c-3.461 0-6.182 2.326-6.182 5.814s2.761 5.814 6.182 5.814a6.021 6.021 0 004.821-2.209l-2.022-1.512a3.772 3.772 0 01-3.072 1.512 2.946 2.946 0 01-3.071-2.636h8.67v-.775c0-3.838-2.138-6.008-5.326-6.008zm-3.344 4.69a2.815 2.815 0 012.955-2.636 2.556 2.556 0 012.877 2.636z" transform="translate(-38.602 -8.63)"/><path id="Path_405" data-name="Path 405" class="cls-3" d="M162.625 23.031h-2.838v17.4h2.838z" transform="translate(-43.887 -6.326)"/><path id="Path_406" data-name="Path 406" class="cls-3" d="M172.952 33.9a3.26 3.26 0 012.177 1.085l1.983-1.9a5.673 5.673 0 00-4.121-1.667c-3.421 0-6.181 2.326-6.181 5.814s2.76 5.814 6.181 5.814a6.615 6.615 0 004.121-1.55l-1.9-1.977a2.771 2.771 0 01-2.217 1.046 3.24 3.24 0 01-3.343-3.333 3.208 3.208 0 013.3-3.332z" transform="translate(-45.815 -8.63)"/><path id="Path_407" data-name="Path 407" class="cls-3" d="M188.053 31.42c-3.421 0-6.182 2.326-6.182 5.814s2.761 5.814 6.182 5.814c3.46 0 6.181-2.326 6.181-5.814.04-3.489-2.721-5.814-6.181-5.814zm0 9.108a3.333 3.333 0 113.344-3.333 3.241 3.241 0 01-3.344 3.333z" transform="translate(-49.952 -8.63)"/><path id="Path_408" data-name="Path 408" class="cls-1" d="M201.061 33.491a2.292 2.292 0 00-.506-.194.963.963 0 01-.428-.155.194.194 0 010-.31.663.663 0 01.622 0 .3.3 0 01.117.271l.466-.039a.7.7 0 00-.233-.543 1.116 1.116 0 00-.662-.194 1.454 1.454 0 00-.466.078.6.6 0 00-.311.233.625.625 0 00-.117.349.553.553 0 00.234.465 1.864 1.864 0 00.544.233 1.142 1.142 0 01.389.116.852.852 0 01.2.116c.038.039.038.078.038.155a.332.332 0 01-.117.233.585.585 0 01-.7 0 .491.491 0 01-.155-.349l-.466.039a.872.872 0 00.311.62.945.945 0 00.7.194 1.727 1.727 0 00.506-.078.537.537 0 00.311-.271.7.7 0 000-.775c-.082-.039-.16-.116-.277-.194z" transform="translate(-54.796 -8.879)"/><path id="Path_409" data-name="Path 409" class="cls-1" d="M204.048 32.489l-.428 1.628-.427-1.628h-.739v2.364h.466v-1.86l.467 1.86h.466l.466-1.86v1.86h.466v-2.364z" transform="translate(-55.606 -8.923)"/></svg>