<svg xmlns="http://www.w3.org/2000/svg" width="15.926" height="19" viewBox="0 0 15.926 19">
    <defs>
        <clipPath id="clip-path">
            <path id="Rectangle_73" d="M0 0H15.926V19H0z" class="cls-1"/>
        </clipPath>
        <style>
            .cls-1{fill:#fff}
        </style>
    </defs>
    <g id="Group_7598">
        <g id="Group_111" clip-path="url(#clip-path)">
            <path id="Path_19" d="M.569 4.455A1.846 1.846 0 0 1 0 3.1a1.846 1.846 0 0 1 .569-1.348 1.846 1.846 0 0 1 1.351-.569 1.845 1.845 0 0 1 1.35.569A1.846 1.846 0 0 1 3.839 3.1a1.846 1.846 0 0 1-.569 1.355 1.845 1.845 0 0 1-1.35.569 1.846 1.846 0 0 1-1.351-.569zm-.32 12.654V6.481h3.306v10.628zm12.37 0V11.92a5.781 5.781 0 0 0-.212-1.849 1.5 1.5 0 0 0-1.529-.96 1.666 1.666 0 0 0-1.6.854 3.971 3.971 0 0 0-.355 1.884v5.26h-3.27V6.481h3.164v1.457h.035a2.833 2.833 0 0 1 1.137-1.173 3.5 3.5 0 0 1 1.99-.569 3.526 3.526 0 0 1 3.235 1.458 7.185 7.185 0 0 1 .711 3.626v5.829z" class="cls-1" transform="translate(0 .611)"/>
        </g>
    </g>
</svg>
