<svg xmlns="http://www.w3.org/2000/svg" width="15.815" height="16.509" viewBox="0 0 15.815 16.509">
    <defs>
        <clipPath id="clip-path">
            <path id="Rectangle_72" d="M0 0H15.815V16.509H0z" class="cls-1"/>
        </clipPath>
        <style>
            .cls-1{fill:#fff}
        </style>
    </defs>
    <g id="Group_7597">
        <g id="Group_109" clip-path="url(#clip-path)">
            <path id="Path_18" d="M14.208 5.173a9.149 9.149 0 0 1-1.081 4.292 8.826 8.826 0 0 1-3.119 3.491 8.918 8.918 0 0 1-5.036 1.451A9 9 0 0 1 0 12.956c.227.021.484.03.772.03A6.427 6.427 0 0 0 4.818 11.6a3.01 3.01 0 0 1-1.9-.634 3.228 3.228 0 0 1-1.127-1.593 5.8 5.8 0 0 0 .588.032 4.114 4.114 0 0 0 .865-.094A3.265 3.265 0 0 1 1.39 8.168 3.111 3.111 0 0 1 .648 6.13v-.062A3.048 3.048 0 0 0 2.1 6.5a3.6 3.6 0 0 1-1.05-1.173 3.143 3.143 0 0 1 .062-3.181 8.942 8.942 0 0 0 2.95 2.409 8.983 8.983 0 0 0 3.722.988 4.546 4.546 0 0 1-.063-.743 3.214 3.214 0 0 1 .434-1.62 3.191 3.191 0 0 1 2.779-1.622 3.109 3.109 0 0 1 1.313.278 3.7 3.7 0 0 1 1.066.742 6.594 6.594 0 0 0 2.069-.772 3.221 3.221 0 0 1-1.42 1.794 6.945 6.945 0 0 0 1.853-.525 7.135 7.135 0 0 1-1.637 1.7 1.9 1.9 0 0 1 .03.398z" class="cls-1" transform="translate(0 .495)"/>
        </g>
    </g>
</svg>
